FILE "WWF WrestleMania - The Arcade Game (Europe) (Demo) (Track 1).bin" BINARY
  TRACK 01 MODE1/2352
    INDEX 01 00:00:00
FILE "WWF WrestleMania - The Arcade Game (Europe) (Demo) (Track 2).bin" BINARY
  TRACK 02 AUDIO
    INDEX 01 00:00:00
FILE "WWF WrestleMania - The Arcade Game (Europe) (Demo) (Track 3).bin" BINARY
  TRACK 03 AUDIO
    INDEX 01 00:00:00
